<svg xmlns="http://www.w3.org/2000/svg" version="1.1" xmlns:xlink="http://www.w3.org/1999/xlink" xmlns:svgjs="http://svgjs.dev/svgjs" width="2000" height="1500" viewBox="0 0 2000 1500"><rect width="2000" height="1500" fill="#151414"></rect><g transform="matrix(0.75,0,0,0.75,250,281.25)"><svg viewBox="0 0 512 320" data-background-color="#151414" preserveAspectRatio="xMidYMid meet" height="1250" width="2000" xmlns="http://www.w3.org/2000/svg" xmlns:xlink="http://www.w3.org/1999/xlink"><defs></defs><g id="tight-bounds" transform="matrix(1,0,0,1,0,0)"><svg viewBox="0 0 512 320" height="320" width="512"><g><svg></svg></g><g><svg viewBox="0 0 512 320" height="320" width="512"><g><path d="M96 160c0-88.366 71.634-160 160-160 88.366 0 160 71.634 160 160 0 88.366-71.634 160-160 160-88.366 0-160-71.634-160-160zM256 314.285c85.209 0 154.285-69.076 154.285-154.285 0-85.209-69.076-154.285-154.285-154.285-85.209 0-154.285 69.076-154.285 154.285 0 85.209 69.076 154.285 154.285 154.285z" fill="#ff0605" fill-rule="nonzero" stroke="none" stroke-width="1" stroke-linecap="butt" stroke-linejoin="miter" stroke-miterlimit="10" stroke-dasharray="" stroke-dashoffset="0" font-family="none" font-weight="none" font-size="none" text-anchor="none" style="mix-blend-mode: normal" data-fill-palette-color="tertiary"></path></g><g transform="matrix(1,0,0,1,128,138.10589402954483)"><svg viewBox="0 0 256 43.78821194091032" height="43.78821194091032" width="256"><g><svg viewBox="0 0 312.4860698777143 53.450024439013546" height="43.78821194091032" width="256"><g transform="matrix(1,0,0,1,56.486069877714336,7.3870873139302375)"><svg viewBox="0 0 256 38.67584981115307" height="38.67584981115307" width="256"><g><svg viewBox="0 0 256 38.67584981115307" height="38.67584981115307" width="256"><g><svg viewBox="0 0 256 38.67584981115307" height="38.67584981115307" width="256"><g transform="matrix(1,0,0,1,0,0)"><svg width="256" viewBox="4.5 -33.4 225.03 34" height="38.67584981115307" data-palette-color="#ff0605"><path d="M8.65 0L4.5 0 4.5-32.8 14.75-32.8Q17.25-32.8 19.38-32.33 21.5-31.85 23.03-30.75 24.55-29.65 25.4-27.9 26.25-26.15 26.25-23.6L26.25-23.6Q26.25-19.75 24.25-17.45 22.25-15.15 18.85-14.3L18.85-14.3 27.2 0 22.5 0 14.6-13.85 8.65-13.85 8.65 0ZM8.65-29.45L8.65-17.25 14.15-17.25Q18-17.25 20.05-18.82 22.1-20.4 22.1-23.6L22.1-23.6Q22.1-26.85 20.05-28.15 18-29.45 14.15-29.45L14.15-29.45 8.65-29.45ZM37.1 0L32.95 0 32.95-32.8 37.1-32.8 37.1-19.05 52.35-19.05 52.35-32.8 56.55-32.8 56.55 0 52.35 0 52.35-15.45 37.1-15.45 37.1 0ZM71.2-18.35L71.2-18.35 69.64-13.35 79.5-13.35 77.95-18.35Q77.05-21.1 76.25-23.83 75.45-26.55 74.65-29.4L74.65-29.4 74.45-29.4Q73.7-26.55 72.9-23.83 72.09-21.1 71.2-18.35ZM65.45 0L61.2 0 72.3-32.8 77-32.8 88.09 0 83.65 0 80.55-10 68.59-10 65.45 0ZM96.89 0L92.74 0 92.74-32.8 102.09-32.8Q104.84-32.8 107.12-32.3 109.39-31.8 110.99-30.68 112.59-29.55 113.49-27.7 114.39-25.85 114.39-23.15L114.39-23.15Q114.39-20.55 113.52-18.65 112.64-16.75 111.04-15.5 109.44-14.25 107.22-13.63 104.99-13 102.29-13L102.29-13 96.89-13 96.89 0ZM96.89-29.45L96.89-16.4 101.79-16.4Q106.09-16.4 108.17-18.03 110.24-19.65 110.24-23.15L110.24-23.15Q110.24-26.7 108.07-28.08 105.89-29.45 101.59-29.45L101.59-29.45 96.89-29.45ZM129.64 0.6L129.64 0.6Q126.19 0.6 123.24-0.7 120.29-2 118.14-4.25L118.14-4.25 120.64-7.15Q122.39-5.3 124.77-4.17 127.14-3.05 129.69-3.05L129.69-3.05Q132.94-3.05 134.74-4.53 136.54-6 136.54-8.4L136.54-8.4Q136.54-9.65 136.12-10.53 135.69-11.4 134.97-12.03 134.24-12.65 133.24-13.15 132.24-13.65 131.09-14.2L131.09-14.2 126.39-16.25Q125.24-16.75 124.04-17.45 122.84-18.15 121.89-19.15 120.94-20.15 120.34-21.53 119.74-22.9 119.74-24.7L119.74-24.7Q119.74-26.55 120.52-28.15 121.29-29.75 122.67-30.93 124.04-32.1 125.92-32.75 127.79-33.4 130.04-33.4L130.04-33.4Q132.99-33.4 135.49-32.27 137.99-31.15 139.74-29.35L139.74-29.35 137.49-26.65Q135.99-28.1 134.17-28.93 132.34-29.75 130.04-29.75L130.04-29.75Q127.29-29.75 125.62-28.48 123.94-27.2 123.94-24.95L123.94-24.95Q123.94-23.75 124.42-22.93 124.89-22.1 125.69-21.48 126.49-20.85 127.44-20.38 128.39-19.9 129.39-19.5L129.39-19.5 134.04-17.5Q135.44-16.9 136.69-16.13 137.94-15.35 138.84-14.33 139.74-13.3 140.27-11.93 140.79-10.55 140.79-8.75L140.79-8.75Q140.79-6.8 140.02-5.1 139.24-3.4 137.79-2.13 136.34-0.85 134.29-0.13 132.24 0.6 129.64 0.6ZM159.34 0.6L159.34 0.6Q156.24 0.6 153.66-0.6 151.09-1.8 149.24-4.03 147.39-6.25 146.36-9.43 145.34-12.6 145.34-16.55L145.34-16.55Q145.34-20.5 146.36-23.63 147.39-26.75 149.24-28.93 151.09-31.1 153.66-32.25 156.24-33.4 159.34-33.4L159.34-33.4Q162.44-33.4 165.01-32.23 167.59-31.05 169.46-28.88 171.34-26.7 172.36-23.58 173.39-20.45 173.39-16.55L173.39-16.55Q173.39-12.6 172.36-9.43 171.34-6.25 169.46-4.03 167.59-1.8 165.01-0.6 162.44 0.6 159.34 0.6ZM159.34-3.05L159.34-3.05Q161.54-3.05 163.31-4 165.09-4.95 166.36-6.73 167.64-8.5 168.34-10.98 169.04-13.45 169.04-16.55L169.04-16.55Q169.04-19.6 168.34-22.05 167.64-24.5 166.36-26.2 165.09-27.9 163.31-28.83 161.54-29.75 159.34-29.75L159.34-29.75Q157.14-29.75 155.36-28.83 153.59-27.9 152.31-26.2 151.04-24.5 150.34-22.05 149.64-19.6 149.64-16.55L149.64-16.55Q149.64-13.45 150.34-10.98 151.04-8.5 152.31-6.73 153.59-4.95 155.36-4 157.14-3.05 159.34-3.05ZM188.84 0L180.44 0 180.44-32.8 188.63-32.8Q196.24-32.8 200.19-28.6 204.13-24.4 204.13-16.55L204.13-16.55Q204.13-12.65 203.13-9.58 202.13-6.5 200.19-4.38 198.24-2.25 195.38-1.13 192.53 0 188.84 0L188.84 0ZM184.59-29.4L184.59-3.4 188.34-3.4Q194.09-3.4 196.96-6.85 199.84-10.3 199.84-16.55L199.84-16.55Q199.84-22.8 196.96-26.1 194.09-29.4 188.34-29.4L188.34-29.4 184.59-29.4ZM219.68 0L215.48 0 215.48-12.7 205.63-32.8 210.08-32.8 214.33-23.55Q215.13-21.75 215.88-20 216.63-18.25 217.48-16.4L217.48-16.4 217.68-16.4Q218.53-18.25 219.38-20 220.23-21.75 220.98-23.55L220.98-23.55 225.18-32.8 229.53-32.8 219.68-12.7 219.68 0Z" opacity="1" transform="matrix(1,0,0,1,0,0)" fill="#ff0605" class="undefined-text-0" data-fill-palette-color="primary" id="text-0"></path></svg></g></svg></g></svg></g></svg></g><g><svg viewBox="0 0 47.355629957696564 53.450024439013546" height="53.450024439013546" width="47.355629957696564"><g><svg xmlns="http://www.w3.org/2000/svg" xmlns:xlink="http://www.w3.org/1999/xlink" version="1.1" x="0" y="0" viewBox="26.600000000000005 27.326493526370577 40.19999999999999 45.37350647362941" style="enable-background:new 0 0 100 100;" xml:space="preserve" height="53.450024439013546" width="47.355629957696564" class="icon-icon-0" data-fill-palette-color="accent" id="icon-0"><path d="M66.8 35.5v-4.7c0-1-0.5-2-1.3-2.7-0.8-0.7-1.9-0.9-2.9-0.7l-22.5 4.2c-1.7 0.3-2.9 1.8-2.9 3.4v5.4c0 0 0 0 0 0v19.9c-1.1-0.7-2.4-1.2-3.8-1.2-3.7 0-6.8 3-6.8 6.8s3 6.8 6.8 6.8 6.8-3 6.8-6.8V41.7l23.5-4.4V55c-1.1-0.7-2.4-1.2-3.8-1.2-3.7 0-6.8 3-6.8 6.8s3 6.8 6.8 6.8c3.5 0 6.4-2.7 6.8-6.1 0-0.1 0-0.2 0-0.3V35.5C66.8 35.5 66.8 35.5 66.8 35.5zM33.5 69.7c-2.1 0-3.8-1.7-3.8-3.8s1.7-3.8 3.8-3.8 3.8 1.7 3.8 3.8S35.6 69.7 33.5 69.7zM40.3 38.7V35c0-0.2 0.2-0.4 0.4-0.5l22.5-4.2c0.2 0 0.3 0.1 0.4 0.1 0.1 0.1 0.2 0.2 0.2 0.4v3.5L40.3 38.7zM60 64.4c-2.1 0-3.8-1.7-3.8-3.8s1.7-3.8 3.8-3.8 3.8 1.7 3.8 3.8S62.1 64.4 60 64.4z" fill="#f70d0b" data-fill-palette-color="accent"></path></svg></g></svg></g></svg></g></svg></g></svg></g></svg><rect width="512" height="320" fill="none" stroke="none" visibility="hidden"></rect></g></svg></g></svg>